<svg version="1.1" id="Layer_1" xmlns="http://www.w3.org/2000/svg" xmlns:xlink="http://www.w3.org/1999/xlink" x="0px" y="0px"
	 width="100%" viewBox="0 0 1510 1032" enable-background="new 0 0 1510 1032" xml:space="preserve">
<path fill="#FFFFFF" opacity="1.000000" stroke="none" 
	d="
M721.000000,1033.000000 
	C481.082214,1033.000000 241.164429,1033.000000 1.000000,1033.000000 
	C1.000000,864.973206 1.000000,696.946350 1.383496,528.664185 
	C2.840677,541.191101 3.088661,554.110535 5.184989,566.722778 
	C8.196465,584.840820 11.562348,603.015930 16.556223,620.663147 
	C25.371614,651.814758 38.620331,681.256531 55.078636,709.156433 
	C73.444397,740.289917 94.933922,769.235229 120.039612,795.174683 
	C136.919174,812.614624 155.262741,828.681091 173.445953,844.804138 
	C193.161911,862.286255 214.829346,877.197144 236.910492,891.582397 
	C270.631317,913.550659 305.841766,932.703918 342.664734,948.831299 
	C362.923340,957.704041 383.338409,966.356323 404.152771,973.793030 
	C439.984192,986.594971 476.379669,997.737854 513.585327,1005.915283 
	C532.186829,1010.003723 550.920715,1013.514893 569.650940,1016.983948 
	C583.604065,1019.568298 597.609680,1021.937561 611.663025,1023.891174 
	C622.223694,1025.359375 632.892822,1026.065063 643.521606,1027.020996 
	C658.742737,1028.389893 673.958008,1029.866089 689.201172,1030.932617 
	C699.105591,1031.625610 709.056152,1031.653442 718.983276,1032.047119 
	C719.667114,1032.074219 720.328308,1032.669067 721.000000,1033.000000 
z"/>
<path fill="#FFFFFF" opacity="1.000000" stroke="none" 
	d="
M1.000000,506.000000 
	C1.000000,337.724518 1.000000,169.449036 1.000000,1.000000 
	C239.360153,1.000000 477.720367,1.000000 716.335632,1.383649 
	C702.903076,2.510323 689.199951,3.043099 675.532104,4.053661 
	C660.955444,5.131419 646.389465,6.453935 631.860352,8.048277 
	C615.756531,9.815418 599.600037,11.429537 583.646423,14.161272 
	C561.663330,17.925446 539.661682,21.907467 518.008972,27.193285 
	C489.924103,34.049320 462.022125,41.769722 434.321503,50.054478 
	C403.441010,59.290283 373.269714,70.680984 344.141876,84.530609 
	C320.121307,95.951851 295.935822,107.216652 272.843201,120.344658 
	C250.494507,133.049759 228.766724,147.113937 208.017059,162.291260 
	C186.475677,178.047653 165.779449,195.125412 145.913757,212.961990 
	C124.392212,232.285248 105.141380,253.935806 87.483246,276.947296 
	C71.649811,297.580872 57.491268,319.285004 45.398834,342.278137 
	C32.557987,366.694336 22.285872,392.181854 14.934603,418.828094 
	C7.510704,445.737640 2.522450,473.000977 1.962000,500.985138 
	C1.928406,502.662506 1.333641,504.328644 1.000000,506.000000 
z"/>
<path fill="#FFFFFF" opacity="1.000000" stroke="none" 
	d="
M1511.000000,536.000000 
	C1511.000000,701.609131 1511.000000,867.218262 1511.000000,1033.000000 
	C1271.307495,1033.000000 1031.614990,1033.000000 791.665894,1032.616455 
	C799.999451,1031.824097 808.600037,1031.565918 817.177673,1030.975708 
	C835.078552,1029.743652 852.974854,1028.427856 870.858215,1026.964722 
	C880.833069,1026.148560 890.827698,1025.309326 900.725281,1023.873413 
	C917.033752,1021.507507 933.322083,1018.925659 949.524048,1015.923340 
	C966.808594,1012.720459 984.063354,1009.271729 1001.189514,1005.316895 
	C1040.199097,996.308838 1078.630249,985.184814 1116.004028,970.810486 
	C1139.079102,961.935547 1161.821899,952.136230 1184.396484,942.042175 
	C1198.555908,935.710938 1212.314819,928.404785 1225.911621,920.915649 
	C1241.040527,912.582642 1256.124146,904.073059 1270.599976,894.673950 
	C1286.875244,884.106567 1302.789795,872.906738 1318.232910,861.156189 
	C1333.491821,849.545593 1348.645996,837.630615 1362.633301,824.552185 
	C1386.420410,802.310791 1408.817871,778.699707 1428.259521,752.384277 
	C1445.272949,729.355835 1460.304077,705.205444 1472.891846,679.498413 
	C1485.545532,653.656799 1495.160645,626.733582 1501.596069,598.714478 
	C1506.068848,579.239868 1509.571899,559.586060 1510.039429,539.515564 
	C1510.066772,538.336853 1510.666504,537.171509 1511.000000,536.000000 
z"/>
<path fill="#FFFFFF" opacity="1.000000" stroke="none" 
	d="
M795.000000,0.999999 
	C1033.583496,1.000000 1272.167114,1.000000 1511.000000,1.000000 
	C1511.000000,166.359085 1511.000000,331.718292 1510.617432,497.335785 
	C1508.800171,483.383057 1508.120361,469.045044 1505.756470,454.990326 
	C1502.085815,433.167236 1496.248535,411.810150 1488.510376,391.031555 
	C1480.189697,368.688354 1470.520142,346.945007 1458.092285,326.564850 
	C1450.461670,314.051788 1442.578491,301.648407 1434.045166,289.742981 
	C1425.756836,278.179199 1416.765015,267.085083 1407.581543,256.207306 
	C1398.643188,245.619965 1389.348877,235.297226 1379.687012,225.368073 
	C1372.092651,217.563766 1363.848022,210.366608 1355.626465,203.204819 
	C1344.724121,193.707794 1334.054810,183.833588 1322.403198,175.330566 
	C1302.521851,160.821793 1282.482178,146.393280 1261.527466,133.530060 
	C1240.163574,120.415634 1218.069458,108.283470 1195.467407,97.447891 
	C1169.798950,85.142227 1143.399658,74.286362 1116.977539,63.645947 
	C1084.206421,50.448738 1050.289551,40.596863 1016.027161,32.132957 
	C995.499756,27.062010 974.681152,23.141937 953.937439,18.984251 
	C940.993469,16.389889 927.987549,14.030005 914.930969,12.094324 
	C903.103760,10.340896 891.178162,9.228842 879.281433,7.971403 
	C862.963745,6.246692 846.654053,4.373933 830.299255,3.098833 
	C819.408875,2.249760 808.445007,2.353057 797.516663,1.958674 
	C796.667358,1.928025 795.838379,1.332812 795.000000,0.999999 
z"/>
<path fill="#416C9E" opacity="1.000000" stroke="none" 
	d="
M794.531372,0.999999 
	C795.838379,1.332812 796.667358,1.928025 797.516663,1.958674 
	C808.445007,2.353057 819.408875,2.249760 830.299255,3.098833 
	C846.654053,4.373933 862.963745,6.246692 879.281433,7.971403 
	C891.178162,9.228842 903.103760,10.340896 914.930969,12.094324 
	C927.987549,14.030005 940.993469,16.389889 953.937439,18.984251 
	C974.681152,23.141937 995.499756,27.062010 1016.027161,32.132957 
	C1050.289551,40.596863 1084.206421,50.448738 1116.977539,63.645947 
	C1143.399658,74.286362 1169.798950,85.142227 1195.467407,97.447891 
	C1218.069458,108.283470 1240.163574,120.415634 1261.527466,133.530060 
	C1282.482178,146.393280 1302.521851,160.821793 1322.403198,175.330566 
	C1334.054810,183.833588 1344.724121,193.707794 1355.626465,203.204819 
	C1363.848022,210.366608 1372.092651,217.563766 1379.687012,225.368073 
	C1389.348877,235.297226 1398.643188,245.619965 1407.581543,256.207306 
	C1416.765015,267.085083 1425.756836,278.179199 1434.045166,289.742981 
	C1442.578491,301.648407 1450.461670,314.051788 1458.092285,326.564850 
	C1470.520142,346.945007 1480.189697,368.688354 1488.510376,391.031555 
	C1496.248535,411.810150 1502.085815,433.167236 1505.756470,454.990326 
	C1508.120361,469.045044 1508.800171,483.383057 1510.617432,497.797058 
	C1511.000000,510.354218 1511.000000,522.708435 1511.000000,535.531372 
	C1510.666504,537.171509 1510.066772,538.336853 1510.039429,539.515564 
	C1509.571899,559.586060 1506.068848,579.239868 1501.596069,598.714478 
	C1495.160645,626.733582 1485.545532,653.656799 1472.891846,679.498413 
	C1460.304077,705.205444 1445.272949,729.355835 1428.259521,752.384277 
	C1408.817871,778.699707 1386.420410,802.310791 1362.633301,824.552185 
	C1348.645996,837.630615 1333.491821,849.545593 1318.232910,861.156189 
	C1302.789795,872.906738 1286.875244,884.106567 1270.599976,894.673950 
	C1256.124146,904.073059 1241.040527,912.582642 1225.911621,920.915649 
	C1212.314819,928.404785 1198.555908,935.710938 1184.396484,942.042175 
	C1161.821899,952.136230 1139.079102,961.935547 1116.004028,970.810486 
	C1078.630249,985.184814 1040.199097,996.308838 1001.189514,1005.316895 
	C984.063354,1009.271729 966.808594,1012.720459 949.524048,1015.923340 
	C933.322083,1018.925659 917.033752,1021.507507 900.725281,1023.873413 
	C890.827698,1025.309326 880.833069,1026.148560 870.858215,1026.964722 
	C852.974854,1028.427856 835.078552,1029.743652 817.177673,1030.975708 
	C808.600037,1031.565918 799.999451,1031.824097 791.204651,1032.616455 
	C767.979126,1033.000000 744.958191,1033.000000 721.468628,1033.000000 
	C720.328308,1032.669067 719.667114,1032.074219 718.983276,1032.047119 
	C709.056152,1031.653442 699.105591,1031.625610 689.201172,1030.932617 
	C673.958008,1029.866089 658.742737,1028.389893 643.521606,1027.020996 
	C632.892822,1026.065063 622.223694,1025.359375 611.663025,1023.891174 
	C597.609680,1021.937561 583.604065,1019.568298 569.650940,1016.983948 
	C550.920715,1013.514893 532.186829,1010.003723 513.585327,1005.915283 
	C476.379669,997.737854 439.984192,986.594971 404.152771,973.793030 
	C383.338409,966.356323 362.923340,957.704041 342.664734,948.831299 
	C305.841766,932.703918 270.631317,913.550659 236.910492,891.582397 
	C214.829346,877.197144 193.161911,862.286255 173.445953,844.804138 
	C155.262741,828.681091 136.919174,812.614624 120.039612,795.174683 
	C94.933922,769.235229 73.444397,740.289917 55.078636,709.156433 
	C38.620331,681.256531 25.371614,651.814758 16.556223,620.663147 
	C11.562348,603.015930 8.196465,584.840820 5.184989,566.722778 
	C3.088661,554.110535 2.840677,541.191101 1.383496,528.204468 
	C1.000000,520.979065 1.000000,513.958069 1.000000,506.468567 
	C1.333641,504.328644 1.928406,502.662506 1.962000,500.985138 
	C2.522450,473.000977 7.510704,445.737640 14.934603,418.828094 
	C22.285872,392.181854 32.557987,366.694336 45.398834,342.278137 
	C57.491268,319.285004 71.649811,297.580872 87.483246,276.947296 
	C105.141380,253.935806 124.392212,232.285248 145.913757,212.961990 
	C165.779449,195.125412 186.475677,178.047653 208.017059,162.291260 
	C228.766724,147.113937 250.494507,133.049759 272.843201,120.344658 
	C295.935822,107.216652 320.121307,95.951851 344.141876,84.530609 
	C373.269714,70.680984 403.441010,59.290283 434.321503,50.054478 
	C462.022125,41.769722 489.924103,34.049320 518.008972,27.193285 
	C539.661682,21.907467 561.663330,17.925446 583.646423,14.161272 
	C599.600037,11.429537 615.756531,9.815418 631.860352,8.048277 
	C646.389465,6.453935 660.955444,5.131419 675.532104,4.053661 
	C689.199951,3.043099 702.903076,2.510323 716.795349,1.383649 
	C742.687561,1.000000 768.375122,1.000000 794.531372,0.999999 
M1315.862671,195.615128 
	C1301.036621,184.644791 1286.499023,173.256592 1271.326172,162.788879 
	C1237.140015,139.203903 1200.837524,119.301392 1163.081421,102.013397 
	C1131.447266,87.528564 1099.056641,75.051987 1065.923462,64.428925 
	C1008.390686,45.982906 949.677979,32.880653 889.662964,26.040897 
	C860.343201,22.699400 830.907593,20.061110 801.452454,18.327583 
	C780.916504,17.118980 760.248657,17.570889 739.657104,18.041376 
	C716.741638,18.564957 693.814026,19.495363 670.951233,21.097765 
	C650.780029,22.511517 630.557922,24.243462 610.596802,27.361700 
	C581.289429,31.939949 551.983032,36.935493 523.052307,43.428986 
	C458.782654,57.854294 396.722015,79.073601 337.251495,107.533020 
	C300.564819,125.089279 265.455322,145.394119 232.183868,168.859360 
	C192.048370,197.165573 155.315186,229.177322 123.596199,266.818207 
	C98.172089,296.988983 76.540367,329.530457 59.772224,365.328979 
	C40.816021,405.798889 29.203175,448.252045 26.326815,492.756500 
	C24.308575,523.983704 25.841644,555.245728 32.261051,586.061768 
	C41.302479,629.464661 57.610054,670.038574 80.667366,707.816406 
	C106.318611,749.844299 138.057968,786.797913 174.848541,819.541260 
	C200.630234,842.486755 228.115967,863.060059 257.100403,881.739136 
	C296.248993,906.968445 337.596893,927.938110 380.622498,945.603882 
	C427.447906,964.829773 475.642029,979.836121 525.023193,990.956055 
	C566.473999,1000.290161 608.288879,1007.477905 650.662109,1011.033691 
	C672.318115,1012.850952 693.986511,1015.221741 715.684021,1015.673340 
	C745.630920,1016.296753 775.622131,1015.757019 805.571960,1014.915283 
	C824.465637,1014.384399 843.383301,1012.982361 862.173279,1010.910461 
	C887.371521,1008.131897 912.555298,1004.929321 937.568115,1000.828369 
	C978.558960,994.107605 1018.890137,984.307190 1058.531006,971.875427 
	C1116.799561,953.601807 1172.841064,930.127380 1225.850464,899.605652 
	C1270.424316,873.940857 1311.859253,844.022583 1349.396118,808.837769 
	C1369.457153,790.033569 1387.802734,769.593994 1404.449219,747.707275 
	C1435.037109,707.490295 1458.596680,663.595093 1472.832642,614.937866 
	C1481.309448,585.964966 1486.411743,556.330078 1486.631714,526.195679 
	C1486.775391,506.506317 1485.168457,486.703278 1482.895874,467.119446 
	C1478.881836,432.532440 1468.344604,399.634186 1453.891846,368.042786 
	C1432.924927,322.212158 1404.323486,281.443359 1369.385132,245.321609 
	C1352.645386,228.014908 1334.129883,212.425766 1315.862671,195.615128 
z"/>
<path fill="#162E5E" opacity="1.000000" stroke="none" 
	d="
M1316.140625,195.836960 
	C1334.129883,212.425766 1352.645386,228.014908 1369.385132,245.321609 
	C1404.323486,281.443359 1432.924927,322.212158 1453.891846,368.042786 
	C1468.344604,399.634186 1478.881836,432.532440 1482.895874,467.119446 
	C1485.168457,486.703278 1486.775391,506.506317 1486.631714,526.195679 
	C1486.411743,556.330078 1481.309448,585.964966 1472.832642,614.937866 
	C1458.596680,663.595093 1435.037109,707.490295 1404.449219,747.707275 
	C1387.802734,769.593994 1369.457153,790.033569 1349.396118,808.837769 
	C1311.859253,844.022583 1270.424316,873.940857 1225.850464,899.605652 
	C1172.841064,930.127380 1116.799561,953.601807 1058.531006,971.875427 
	C1018.890137,984.307190 978.558960,994.107605 937.568115,1000.828369 
	C912.555298,1004.929321 887.371521,1008.131897 862.173279,1010.910461 
	C843.383301,1012.982361 824.465637,1014.384399 805.571960,1014.915283 
	C775.622131,1015.757019 745.630920,1016.296753 715.684021,1015.673340 
	C693.986511,1015.221741 672.318115,1012.850952 650.662109,1011.033691 
	C608.288879,1007.477905 566.473999,1000.290161 525.023193,990.956055 
	C475.642029,979.836121 427.447906,964.829773 380.622498,945.603882 
	C337.596893,927.938110 296.248993,906.968445 257.100403,881.739136 
	C228.115967,863.060059 200.630234,842.486755 174.848541,819.541260 
	C138.057968,786.797913 106.318611,749.844299 80.667366,707.816406 
	C57.610054,670.038574 41.302479,629.464661 32.261051,586.061768 
	C25.841644,555.245728 24.308575,523.983704 26.326815,492.756500 
	C29.203175,448.252045 40.816021,405.798889 59.772224,365.328979 
	C76.540367,329.530457 98.172089,296.988983 123.596199,266.818207 
	C155.315186,229.177322 192.048370,197.165573 232.183868,168.859360 
	C265.455322,145.394119 300.564819,125.089279 337.251495,107.533020 
	C396.722015,79.073601 458.782654,57.854294 523.052307,43.428986 
	C551.983032,36.935493 581.289429,31.939949 610.596802,27.361700 
	C630.557922,24.243462 650.780029,22.511517 670.951233,21.097765 
	C693.814026,19.495363 716.741638,18.564957 739.657104,18.041376 
	C760.248657,17.570889 780.916504,17.118980 801.452454,18.327583 
	C830.907593,20.061110 860.343201,22.699400 889.662964,26.040897 
	C949.677979,32.880653 1008.390686,45.982906 1065.923462,64.428925 
	C1099.056641,75.051987 1131.447266,87.528564 1163.081421,102.013397 
	C1200.837524,119.301392 1237.140015,139.203903 1271.326172,162.788879 
	C1286.499023,173.256592 1301.036621,184.644791 1316.140625,195.836960 
M1084.034058,957.606995 
	C1097.103516,952.728638 1110.292114,948.145752 1123.223022,942.924255 
	C1212.111938,907.031250 1292.930420,858.591125 1360.311768,789.479675 
	C1396.983887,751.865967 1427.244995,709.728760 1448.572632,661.543274 
	C1481.569336,586.993896 1488.973999,510.053009 1468.482788,430.943939 
	C1449.902344,359.212280 1411.349487,298.919769 1360.256470,246.181274 
	C1309.683960,193.979797 1250.589233,153.485886 1185.856812,120.993904 
	C1094.133667,74.954086 996.763000,47.584896 895.287354,34.217800 
	C843.548950,27.402445 791.558167,24.726376 739.351196,25.770166 
	C696.851257,26.619877 654.587708,29.891129 612.497681,35.796425 
	C547.903870,44.859051 484.799194,59.995983 423.466156,82.214020 
	C340.370514,112.315598 263.424622,153.416061 195.966034,211.116486 
	C145.307983,254.446640 103.382210,304.759644 74.409363,365.217041 
	C52.772667,410.366150 40.629467,457.956604 39.251373,508.036896 
	C37.515038,571.135864 52.552711,630.358276 82.179688,685.932617 
	C114.345375,746.269226 159.180466,795.868652 212.393051,838.196716 
	C283.121429,894.457947 362.742981,933.900879 448.248627,962.052002 
	C525.451294,987.469666 604.777466,1002.026733 685.759155,1007.754089 
	C726.148193,1010.610596 766.594543,1010.948730 807.059082,1009.173401 
	C850.018799,1007.288513 892.692505,1002.759338 935.072876,995.539307 
	C985.479492,986.952026 1034.897339,974.418579 1084.034058,957.606995 
z"/>
<path fill="#FFFFFF" opacity="1.000000" stroke="none" 
	d="
M1083.665039,957.752747 
	C1034.897339,974.418579 985.479492,986.952026 935.072876,995.539307 
	C892.692505,1002.759338 850.018799,1007.288513 807.059082,1009.173401 
	C766.594543,1010.948730 726.148193,1010.610596 685.759155,1007.754089 
	C604.777466,1002.026733 525.451294,987.469666 448.248627,962.052002 
	C362.742981,933.900879 283.121429,894.457947 212.393051,838.196716 
	C159.180466,795.868652 114.345375,746.269226 82.179688,685.932617 
	C52.552711,630.358276 37.515038,571.135864 39.251373,508.036896 
	C40.629467,457.956604 52.772667,410.366150 74.409363,365.217041 
	C103.382210,304.759644 145.307983,254.446640 195.966034,211.116486 
	C263.424622,153.416061 340.370514,112.315598 423.466156,82.214020 
	C484.799194,59.995983 547.903870,44.859051 612.497681,35.796425 
	C654.587708,29.891129 696.851257,26.619877 739.351196,25.770166 
	C791.558167,24.726376 843.548950,27.402445 895.287354,34.217800 
	C996.763000,47.584896 1094.133667,74.954086 1185.856812,120.993904 
	C1250.589233,153.485886 1309.683960,193.979797 1360.256470,246.181274 
	C1411.349487,298.919769 1449.902344,359.212280 1468.482788,430.943939 
	C1488.973999,510.053009 1481.569336,586.993896 1448.572632,661.543274 
	C1427.244995,709.728760 1396.983887,751.865967 1360.311768,789.479675 
	C1292.930420,858.591125 1212.111938,907.031250 1123.223022,942.924255 
	C1110.292114,948.145752 1097.103516,952.728638 1083.665039,957.752747 
M1299.976318,426.015930 
	C1299.976318,426.015930 1300.072510,426.043030 1300.219238,425.523529 
	C1299.921021,425.330902 1299.622925,425.138306 1299.096680,424.274506 
	C1281.111084,397.086304 1258.686157,373.926544 1233.905640,352.981323 
	C1188.720337,314.789276 1137.626953,286.482819 1083.078857,264.263428 
	C985.032166,224.325424 882.553284,206.046173 777.101440,203.428772 
	C751.840393,202.801773 726.451721,203.356079 701.253174,205.181183 
	C670.436768,207.413193 639.637878,210.707138 609.047363,215.059280 
	C555.426453,222.688004 503.228119,236.426941 452.433502,255.243195 
	C395.021637,276.510712 340.925049,304.026031 292.349396,341.691162 
	C284.469696,347.800995 276.808228,354.192261 268.230133,360.633423 
	C259.193573,363.443268 249.950806,365.724487 241.156342,369.154999 
	C204.082733,383.616455 173.810928,406.525391 153.698624,441.508484 
	C143.927536,458.504181 137.196182,476.742889 138.362808,496.537811 
	C141.321869,546.746826 163.564087,586.108215 206.418472,613.252075 
	C212.592072,617.162415 218.762451,621.077942 224.991196,625.686340 
	C231.317261,633.187683 237.327606,640.984253 244.021103,648.142029 
	C284.476593,691.403381 332.874542,723.699158 385.622040,749.852844 
	C431.087158,772.395691 478.637604,789.326355 527.717590,802.084595 
	C589.779785,818.217468 652.908142,827.706055 716.929016,829.546509 
	C754.319580,830.621338 791.862244,829.627258 829.225891,827.562256 
	C871.591064,825.220825 913.486267,818.391724 954.956055,809.155334 
	C1031.304688,792.150452 1104.046875,765.889832 1171.283447,725.406860 
	C1197.718872,709.490112 1222.785645,691.696106 1246.140991,670.240601 
	C1264.084106,668.560120 1281.597656,665.003113 1298.650757,659.021790 
	C1368.127197,634.653320 1384.779907,568.644287 1372.692261,522.803589 
	C1362.040649,482.408600 1337.347290,451.060364 1303.103516,427.260193 
	C1302.585571,426.900146 1301.738892,427.013062 1301.014648,426.976807 
	C1301.014648,426.976807 1301.090820,426.960388 1301.355957,426.255188 
	C1300.902100,426.142670 1300.448242,426.030151 1299.976318,426.015930 
M802.674011,958.020325 
	C803.986633,958.233704 805.294250,958.486328 806.612610,958.654480 
	C831.196411,961.789246 850.398254,939.928894 843.305237,916.890198 
	C838.681274,901.871094 824.483154,892.720520 808.181213,894.252930 
	C791.033813,895.864929 778.785828,907.365540 777.158997,923.382019 
	C775.519409,939.524536 785.064697,952.853455 802.674011,958.020325 
M688.994141,926.626404 
	C688.949219,940.848694 695.007385,951.541870 708.199402,957.094666 
	C721.621948,962.744507 734.863770,961.630005 746.085938,951.816711 
	C756.340759,942.849182 758.819885,931.017151 755.112793,918.124207 
	C750.770813,903.023438 736.198669,894.468872 718.150635,895.924561 
	C702.399658,897.194946 691.202515,908.640625 688.994141,926.626404 
M926.697754,109.345131 
	C927.018860,106.591103 927.339905,103.837082 927.699768,100.750626 
	C924.612244,100.406395 921.894592,100.103394 918.917358,99.771454 
	C916.468628,118.407379 914.100830,136.427551 911.811523,153.849869 
	C904.076843,136.538376 896.185303,118.824394 888.245911,101.131920 
	C885.067383,94.048851 883.545959,93.291512 875.262878,94.322174 
	C872.083435,117.156609 868.900574,140.015228 865.661255,163.279709 
	C868.818726,163.638382 871.412842,163.933075 874.513855,164.285324 
	C877.023376,145.624435 879.485840,127.313835 881.989197,108.699074 
	C890.090454,127.041962 897.997009,144.932617 905.893372,162.827728 
	C909.174438,170.263641 909.215393,170.298233 918.164612,169.878006 
	C920.958618,150.037033 923.762817,130.123550 926.697754,109.345131 
M615.628296,923.010925 
	C614.570251,931.541016 613.512207,940.071167 612.405151,948.997009 
	C616.436829,949.473450 619.977539,949.891907 623.866028,950.351501 
	C624.697205,944.192383 625.464783,938.504944 626.257996,932.626770 
	C630.843506,933.137146 634.957092,933.780396 639.093445,934.003113 
	C643.219788,934.225342 647.436462,934.499268 651.494690,933.919067 
	C661.809448,932.444336 667.910767,925.753479 669.512695,914.900269 
	C670.841309,905.898376 666.454285,897.355530 657.621887,893.377930 
	C645.734497,888.024414 632.738892,888.828247 620.041443,886.755859 
	C618.556396,899.023682 617.158264,910.572876 615.628296,923.010925 
M691.587402,137.937622 
	C689.585388,144.822189 687.583374,151.706772 685.526672,158.779465 
	C689.129883,158.779465 691.922363,158.779465 694.981995,158.779465 
	C697.179810,151.217010 699.339600,143.785324 701.770691,135.419922 
	C708.714600,135.419922 715.529907,135.693787 722.305359,135.293823 
	C725.284546,135.117950 726.393555,135.998077 727.325745,138.594528 
	C729.549316,144.787689 732.074951,150.872406 734.527161,157.124680 
	C737.938599,156.854019 740.958496,156.614426 744.381653,156.342819 
	C735.734497,134.121231 727.351196,112.642448 719.041626,91.135132 
	C718.086182,88.662056 717.356201,86.453850 713.908020,87.287331 
	C710.578491,88.092140 706.447083,86.054474 704.940430,91.706482 
	C700.879028,106.942657 696.242188,122.025444 691.587402,137.937622 
M814.964905,141.369690 
	C815.637512,137.563232 817.762878,136.346359 821.642883,136.841934 
	C827.077759,137.536133 832.581787,137.783463 838.064758,137.966110 
	C840.719604,138.054520 841.752991,139.135269 842.344177,141.667236 
	C843.844299,148.091568 845.680908,154.437347 847.403015,160.890335 
	C850.797852,161.051224 853.810425,161.194016 857.233948,161.356277 
	C851.649658,139.954041 846.249268,119.233406 840.835022,98.516411 
	C838.250000,88.625015 838.238037,88.628136 827.098938,89.201736 
	C817.631836,111.640594 808.119324,134.187012 798.559387,156.845978 
	C807.808960,158.821381 807.806580,158.820404 810.881042,151.320007 
	C812.139404,148.249863 813.410278,145.184814 814.964905,141.369690 
M639.200928,150.346558 
	C639.745728,154.897034 640.290527,159.447510 640.880615,164.376175 
	C654.262634,163.036453 667.081421,161.753128 680.168152,160.442963 
	C679.941284,157.597610 679.761414,155.341827 679.548157,152.667160 
	C669.176514,153.611694 659.338013,154.507675 649.268799,155.424683 
	C648.423035,146.898087 647.642334,139.027481 646.830017,130.838272 
	C656.151978,129.832779 664.983582,128.880188 674.060120,127.901169 
	C673.622803,124.993492 673.286194,122.755043 672.919556,120.317261 
	C663.819946,121.203743 655.113586,122.051918 646.042969,122.935570 
	C645.307251,115.641869 644.597839,108.608536 643.861267,101.306206 
	C653.556641,100.296715 662.754944,99.338974 672.291260,98.346046 
	C672.114868,95.554031 671.964783,93.178703 671.795959,90.506729 
	C658.755920,91.814163 646.406555,93.052345 633.749878,94.321342 
	C635.579468,113.037987 637.358398,131.235565 639.200928,150.346558 
M571.860474,122.833275 
	C568.379822,112.169487 562.107117,106.864777 551.343994,107.661896 
	C542.713501,108.301064 534.216858,110.747726 525.224304,112.476173 
	C530.156921,136.171768 534.820618,158.575531 539.579834,181.438202 
	C542.801758,180.806961 545.648804,180.249146 548.717285,179.647964 
	C546.841064,170.369827 545.044434,161.485168 543.247864,152.600784 
	C566.518311,148.351257 574.060486,140.646317 571.860474,122.833275 
M786.781799,124.734787 
	C780.686646,121.400833 774.589905,118.069855 768.496887,114.732033 
	C762.395386,111.389633 759.974243,107.158302 761.174927,101.955070 
	C762.331543,96.942680 767.297241,93.523468 774.040466,93.968262 
	C778.569336,94.266983 783.030212,95.595184 787.800659,96.516708 
	C788.503723,94.488914 789.299255,92.194389 790.185059,89.639458 
	C781.182861,85.553101 772.319763,84.487885 763.319092,88.058563 
	C754.248474,91.656952 749.856873,100.145157 751.957397,109.417137 
	C753.362183,115.618172 757.744812,119.363190 763.073120,122.125778 
	C767.636841,124.492020 772.475952,126.357231 776.915466,128.924454 
	C781.302002,131.460999 783.381958,135.542145 782.501343,140.748383 
	C781.621277,145.951233 778.380920,149.079361 773.330688,150.006989 
	C770.443665,150.537277 767.321167,150.813446 764.473267,150.288849 
	C760.161072,149.494568 755.995789,147.902573 751.474182,146.562393 
	C750.781555,148.865173 750.043762,151.318039 749.270630,153.888199 
	C758.361511,158.558731 767.431946,159.858276 776.797424,157.360397 
	C792.043396,153.294174 797.052551,137.700958 786.781799,124.734787 
M180.506592,312.050293 
	C178.667999,308.357666 176.829391,304.665009 174.651016,300.289948 
	C172.234436,305.037262 170.482574,309.200317 168.058640,312.926178 
	C166.903183,314.702209 164.639328,316.291046 162.579727,316.833069 
	C158.384369,317.937164 153.987000,318.273743 149.459503,318.958832 
	C152.790985,322.454803 155.476868,325.645264 158.559860,328.389679 
	C160.985672,330.549103 161.651443,332.807739 161.008301,335.886963 
	C160.139069,340.048584 159.575195,344.274017 158.756805,349.218109 
	C163.349747,346.842102 167.271378,345.040100 170.950180,342.833344 
	C173.554886,341.270905 175.663101,341.287201 178.275696,342.848999 
	C181.861603,344.992676 185.723236,346.675140 190.466049,349.057129 
	C189.591385,343.851379 189.079926,339.911163 188.231812,336.044769 
	C187.560165,332.982819 188.062241,330.647186 190.588303,328.548523 
	C193.882767,325.811432 196.906204,322.748138 200.848877,319.078064 
	C195.264420,318.249451 191.024277,317.437286 186.745651,317.047974 
	C183.752747,316.775635 181.646942,315.776611 180.506592,312.050293 
M882.068970,924.273926 
	C880.399841,912.526917 878.730774,900.779968 877.045593,888.919861 
	C872.807190,889.614868 869.420471,890.170227 865.573669,890.800964 
	C868.533691,911.709656 871.431274,932.177795 874.356201,952.838684 
	C889.296936,950.714661 903.569824,948.685547 918.313416,946.589539 
	C917.841370,943.169800 917.424805,940.152100 916.968811,936.848877 
	C905.948547,938.372559 895.464050,939.822144 884.598999,941.324341 
	C883.738525,935.602417 882.952759,930.377502 882.068970,924.273926 
M1351.083862,334.486023 
	C1351.853027,332.639313 1352.190796,330.383118 1353.477539,329.027802 
	C1356.516235,325.827271 1360.006470,323.055511 1363.314087,320.110382 
	C1358.189453,318.222961 1353.843262,317.921448 1349.698364,316.845123 
	C1347.620605,316.305634 1345.304077,314.743744 1344.158203,312.961121 
	C1341.770996,309.247375 1340.090820,305.079254 1337.748291,300.346558 
	C1335.426758,304.959900 1333.352661,308.696045 1331.648926,312.594055 
	C1330.364990,315.531311 1328.502441,316.868469 1325.246216,317.101562 
	C1321.124023,317.396576 1317.046021,318.306854 1312.817505,318.972473 
	C1316.058228,322.459442 1318.579590,325.564178 1321.514038,328.210876 
	C1324.043457,330.492279 1324.802612,332.872253 1324.072754,336.147583 
	C1323.175781,340.173218 1322.654907,344.282715 1321.834717,349.170074 
	C1325.972900,347.023102 1329.558716,345.392151 1332.902588,343.362640 
	C1336.183594,341.371155 1339.047485,341.063232 1342.422729,343.321869 
	C1345.536743,345.405762 1349.078979,346.849945 1353.527710,349.139374 
	C1352.613647,343.722443 1351.904053,339.517578 1351.083862,334.486023 
M950.654297,112.817802 
	C953.070068,113.299759 955.485840,113.781715 958.038208,114.290916 
	C953.882080,134.744537 949.789795,154.883865 945.622009,175.394699 
	C949.028198,176.056946 951.866394,176.608765 954.884827,177.195602 
	C959.121582,156.562820 963.249329,136.461243 967.403259,116.231926 
	C974.657837,117.632980 981.415405,118.938049 988.386597,120.284378 
	C988.966553,117.379097 989.412292,115.146210 989.933655,112.534439 
	C972.804810,109.041679 955.968750,105.608627 938.797485,102.107216 
	C938.256470,104.969208 937.810913,107.326019 937.322998,109.906845 
	C941.740601,110.867661 945.785828,111.747482 950.654297,112.817802 
M606.545654,168.945374 
	C614.715515,167.666367 622.885315,166.387375 631.447327,165.046982 
	C631.028076,162.253159 630.676880,159.913193 630.289856,157.334030 
	C620.260498,158.811646 610.796692,160.205948 600.802673,161.678360 
	C597.624390,140.941589 594.497375,120.539810 591.334839,99.905785 
	C587.969238,100.475327 585.233337,100.938309 582.120422,101.465080 
	C585.662659,124.762825 589.163635,147.788864 592.692749,171.000244 
	C597.491699,170.265961 601.581909,169.640121 606.545654,168.945374 
z"/>
<path fill="#FF942B" opacity="1.000000" stroke="none" 
	d="
M269.045898,360.453461 
	C276.808228,354.192261 284.469696,347.800995 292.349396,341.691162 
	C340.925049,304.026031 395.021637,276.510712 452.433502,255.243195 
	C503.228119,236.426941 555.426453,222.688004 609.047363,215.059280 
	C639.637878,210.707138 670.436768,207.413193 701.253174,205.181183 
	C726.451721,203.356079 751.840393,202.801773 777.101440,203.428772 
	C882.553284,206.046173 985.032166,224.325424 1083.078857,264.263428 
	C1137.626953,286.482819 1188.720337,314.789276 1233.905640,352.981323 
	C1258.686157,373.926544 1281.111084,397.086304 1299.247925,424.840271 
	C1299.573486,425.671234 1299.797974,425.883575 1300.072510,426.043030 
	C1300.072510,426.043030 1299.976318,426.015930 1300.030884,426.282043 
	C1300.420532,426.685577 1300.755737,426.822998 1301.090820,426.960388 
	C1301.090820,426.960388 1301.014648,426.976807 1300.920776,427.279510 
	C1301.858276,429.563019 1302.889648,431.543823 1303.889648,433.906128 
	C1304.234009,434.871246 1304.609985,435.454926 1304.994019,436.019165 
	C1305.002075,435.999756 1304.960571,435.998657 1304.891357,436.390656 
	C1305.344849,438.532410 1305.854614,440.286102 1306.391846,442.031342 
	C1315.180542,470.584167 1314.270752,498.727570 1302.655273,526.463013 
	C1302.276123,526.653259 1302.106323,526.834167 1301.996094,527.046143 
	C1302.028442,527.051697 1302.057373,526.992737 1301.708984,527.056824 
	C1298.753784,528.596313 1296.152710,530.081909 1293.539429,531.545532 
	C1274.490967,542.214050 1254.118164,547.932312 1232.264893,545.878357 
	C1212.912476,544.059387 1193.401123,542.319092 1174.442627,538.279358 
	C1141.453247,531.249756 1108.846680,522.430176 1076.059448,514.443909 
	C1024.690308,501.931610 972.603821,493.910614 919.878845,490.215302 
	C884.811401,487.757568 849.703796,487.342407 814.551270,488.760651 
	C778.244446,490.225433 742.119690,493.545715 706.299683,499.411163 
	C653.613159,508.038452 601.081116,517.604248 548.437134,526.497681 
	C513.296875,532.434143 477.902557,536.414673 442.279999,537.774780 
	C405.930695,539.162598 369.694183,537.659363 333.841827,530.976562 
	C306.470459,525.874573 279.589569,519.038086 254.553436,506.365936 
	C243.776199,500.910950 233.822510,494.239655 225.867554,485.041046 
	C206.467377,462.607727 205.833237,433.491852 225.251846,408.613953 
	C235.565674,395.400543 247.552963,383.489838 258.845520,371.046143 
	C262.138245,367.417786 265.639984,363.979095 269.045898,360.453461 
M261.307404,408.964142 
	C255.857910,413.547394 249.782516,417.571136 245.084671,422.826355 
	C234.144638,435.064270 232.465454,449.779022 240.261536,462.898987 
	C243.281265,467.980865 247.183289,472.732574 251.444336,476.846527 
	C264.429382,489.383331 301.091217,505.581665 319.470978,507.382538 
	C311.644501,502.798309 303.749847,498.509064 296.199615,493.681122 
	C281.109741,484.031982 266.632599,473.573730 257.848755,457.310638 
	C250.489914,443.685883 249.402527,429.792206 257.378174,415.923096 
	C258.759460,413.521118 260.438019,411.290009 262.506104,409.006287 
	C262.559723,408.804199 262.613342,408.602081 262.666962,408.399994 
	C262.449982,408.606079 262.233032,408.812164 261.307404,408.964142 
M1120.267578,363.268250 
	C1121.076904,363.464722 1121.955322,363.966431 1122.682861,363.801758 
	C1125.079346,363.259430 1127.421021,362.475830 1129.783813,361.784851 
	C1128.514893,359.130249 1127.512085,356.292725 1125.865723,353.897522 
	C1125.032104,352.684784 1122.996826,352.336700 1121.573364,351.483429 
	C1117.518188,349.052612 1113.498047,346.563171 1109.464233,344.096802 
	C1109.649048,343.575989 1109.833984,343.055176 1110.018799,342.534393 
	C1116.475952,343.508209 1122.914062,344.639465 1129.394897,345.416687 
	C1137.808716,346.425781 1146.243408,347.475891 1154.697021,347.818268 
	C1157.475464,347.930847 1161.923462,346.584717 1162.758545,344.665680 
	C1163.758545,342.367676 1161.717529,338.739441 1160.962402,335.695099 
	C1160.887573,335.393433 1160.603638,335.139435 1160.403076,334.873688 
	C1140.771240,308.856110 1114.382446,297.629272 1082.172485,299.086823 
	C1080.388916,299.167542 1078.394897,299.327240 1076.825928,298.669708 
	C1065.035767,293.728577 1053.342896,288.556122 1041.591431,283.521790 
	C998.891418,265.228943 955.239929,249.622055 910.330872,237.688339 
	C897.713501,234.335480 885.409119,234.073441 874.665344,243.838882 
	C862.234375,255.137848 850.017212,266.833313 836.558655,276.806549 
	C809.069336,297.177032 789.913391,322.795319 780.798401,356.023621 
	C777.058533,369.657074 771.545166,382.818695 762.547424,394.030975 
	C760.773743,396.241272 757.732788,397.880981 754.952881,398.753418 
	C746.724731,401.335663 738.191711,402.981750 730.037048,405.755768 
	C711.189270,412.167328 695.255798,423.805817 679.306213,435.256653 
	C619.785400,477.988922 553.883789,491.303192 482.202759,478.427277 
	C465.941772,475.506348 449.705780,473.485596 433.108643,476.459839 
	C404.983429,481.499908 380.863770,494.678345 358.571869,511.844757 
	C357.602661,512.591125 356.755096,513.495300 355.506500,514.642273 
	C387.601105,518.898376 419.160889,519.612610 450.808868,517.917175 
	C500.275269,515.267273 548.986084,506.996490 597.692322,498.533661 
	C640.951660,491.017273 684.205688,483.371033 727.636597,476.966339 
	C784.292480,468.611420 841.375671,466.631195 898.534668,469.755676 
	C925.432190,471.225952 952.253845,474.234589 979.073853,476.907593 
	C990.929443,478.089142 1002.695557,480.168640 1014.756653,481.876556 
	C1014.807373,480.980804 1014.937988,480.338623 1014.864807,479.720520 
	C1012.979004,463.786499 1009.670288,448.211853 1002.811340,433.586426 
	C988.456116,402.976440 955.345764,385.925568 922.276489,393.080170 
	C895.163086,398.946228 877.772461,416.392120 868.104126,442.021606 
	C867.531372,443.539734 866.470581,445.698029 865.248108,446.003784 
	C860.010132,447.313934 854.626526,448.041321 849.314270,448.977936 
	C849.137207,448.145966 848.960266,447.813568 849.021973,447.533783 
	C853.890625,425.454163 856.013000,403.183380 853.959595,380.583160 
	C853.827454,379.129150 854.538269,377.290833 855.458801,376.094391 
	C873.007690,353.286774 887.314087,328.561981 899.070984,302.347168 
	C900.424988,299.328156 902.026733,298.569916 905.125183,299.057770 
	C912.354187,300.195831 919.617310,301.155304 926.892151,301.955994 
	C951.701111,304.686554 976.572632,306.918121 1001.320557,310.112701 
	C1021.001892,312.653290 1040.222534,317.457886 1058.241089,326.156097 
	C1060.122681,327.064392 1062.012573,328.343536 1063.358643,329.913544 
	C1078.304321,347.345490 1097.053833,358.278717 1120.267578,363.268250 
M1239.398682,532.011841 
	C1242.871338,531.662354 1246.362305,531.440002 1249.813721,530.942871 
	C1273.679565,527.505249 1292.350464,511.033234 1296.487793,489.181366 
	C1299.375000,473.932312 1295.741333,459.483795 1289.594238,445.544281 
	C1288.990601,444.175262 1288.423462,442.785950 1287.738525,441.458099 
	C1287.145752,440.308685 1286.409546,439.233246 1286.054932,438.649323 
	C1286.054932,449.183197 1286.672607,460.000610 1285.918579,470.721497 
	C1284.594116,489.550079 1275.656006,504.143829 1259.342407,513.970398 
	C1246.897949,521.466431 1233.171509,524.383057 1218.866699,524.943176 
	C1212.212769,525.203674 1205.540161,524.987610 1199.244263,524.987610 
	C1211.418091,530.267578 1224.626343,532.686584 1239.398682,532.011841 
M264.435669,407.356812 
	C264.435669,407.356812 264.310455,407.528320 264.310455,407.528320 
	C264.310455,407.528320 264.571106,407.520874 264.435669,407.356812 
z"/>
<path fill="#608EB4" opacity="1.000000" stroke="none" 
	d="
M1302.837524,526.428284 
	C1314.270752,498.727570 1315.180542,470.584167 1306.391846,442.031342 
	C1305.854614,440.286102 1305.344849,438.532410 1305.228516,436.481262 
	C1320.909424,461.962860 1330.743774,489.232971 1329.228516,519.803955 
	C1328.180786,540.944397 1320.719482,559.356506 1306.468262,574.890747 
	C1289.450439,593.440491 1267.310547,602.593079 1243.379883,607.964600 
	C1206.161621,616.318481 1168.493042,616.778564 1130.731812,613.149353 
	C1098.319702,610.034241 1066.003906,605.880798 1033.572266,603.017212 
	C1004.945190,600.489685 976.238953,598.517456 947.524902,597.444519 
	C930.284729,596.800415 912.875854,597.458313 895.698059,599.128052 
	C871.425232,601.487671 847.114502,604.335083 823.143127,608.734863 
	C773.492554,617.847900 725.523987,633.312317 677.850586,649.649231 
	C676.419128,650.139709 675.029297,650.751526 673.619995,651.306763 
	C675.001770,651.967407 676.165405,651.998779 677.296875,651.823120 
	C696.661377,648.815491 715.938293,644.996155 735.401489,642.925293 
	C771.238647,639.112183 807.135010,635.438599 843.102783,633.414917 
	C867.651733,632.033752 892.387024,632.969666 916.996216,633.946533 
	C939.563904,634.842346 962.156494,636.472473 984.588562,639.069763 
	C1010.639465,642.086121 1036.568237,646.252747 1062.476318,650.382751 
	C1098.221191,656.080688 1133.850708,662.509705 1169.618164,668.055420 
	C1194.695190,671.943604 1220.018677,671.684814 1245.317993,670.500793 
	C1222.785645,691.696106 1197.718872,709.490112 1171.283447,725.406860 
	C1104.046875,765.889832 1031.304688,792.150452 954.956055,809.155334 
	C913.486267,818.391724 871.591064,825.220825 829.225891,827.562256 
	C791.862244,829.627258 754.319580,830.621338 716.929016,829.546509 
	C652.908142,827.706055 589.779785,818.217468 527.717590,802.084595 
	C478.637604,789.326355 431.087158,772.395691 385.622040,749.852844 
	C332.874542,723.699158 284.476593,691.403381 244.021103,648.142029 
	C237.327606,640.984253 231.317261,633.187683 225.334778,625.332703 
	C231.587952,627.642578 237.433960,630.459106 243.417404,632.944824 
	C284.285095,649.922791 327.353699,655.520752 371.104462,656.596313 
	C390.860779,657.081970 410.715637,656.352356 430.432678,654.905579 
	C452.944275,653.253662 475.597748,651.525024 497.752808,647.453369 
	C540.520020,639.593811 583.133484,630.735352 625.528870,621.056641 
	C677.344788,609.227356 728.789673,595.781250 780.545410,583.677429 
	C832.868225,571.440918 885.834045,562.860107 939.565674,560.238098 
	C976.347229,558.443176 1013.086304,559.993286 1049.609497,565.175110 
	C1087.909058,570.609070 1125.935547,578.009094 1164.673218,580.262390 
	C1189.702881,581.718323 1214.564087,581.413086 1239.085327,575.765320 
	C1258.755005,571.234985 1276.885010,563.347107 1289.996826,547.309509 
	C1294.926147,541.280457 1298.089233,533.807495 1302.057373,526.992737 
	C1302.057373,526.992737 1302.028442,527.051697 1302.161865,526.974609 
	C1302.492310,526.760010 1302.673096,526.603577 1302.837524,526.428284 
M1073.713257,744.198914 
	C1043.637695,751.782227 1013.729614,760.134033 983.439697,766.733337 
	C953.029236,773.358887 922.352539,778.989624 891.581787,783.670776 
	C860.969299,788.327942 830.163147,792.050171 799.315796,794.731262 
	C768.245544,797.431702 737.038086,799.001343 705.857544,799.858826 
	C675.038879,800.706360 644.178833,800.044067 613.336914,800.044067 
	C803.997742,829.717896 986.035156,802.218018 1159.354980,717.484070 
	C1131.069946,726.322388 1102.784912,735.160706 1073.713257,744.198914 
M316.022522,680.520447 
	C308.673096,679.664490 301.323669,678.808594 293.974213,677.952637 
	C329.593964,692.706726 366.454773,702.509888 404.661591,706.895630 
	C443.246094,711.324768 481.478851,708.391235 519.534729,701.081909 
	C547.490112,695.712646 619.342224,672.286926 627.988098,665.062256 
	C627.194824,665.062256 626.515869,664.948547 625.887390,665.078613 
	C593.742920,671.735596 561.427490,677.352905 528.690369,680.093079 
	C502.754456,682.263916 476.810608,684.736816 450.818970,685.721680 
	C429.237366,686.539368 407.563660,685.827942 385.962555,684.981873 
	C362.921631,684.079285 339.917999,682.223389 316.022522,680.520447 
M670.795959,652.238831 
	C670.796997,652.407532 670.798035,652.576172 670.799072,652.744812 
	C670.933350,652.743713 671.175964,652.768860 671.183655,652.737183 
	C671.222717,652.576111 671.200745,652.400330 670.795959,652.238831 
z"/>
<path fill="#132B5B" opacity="1.000000" stroke="none" 
	d="
M1301.708984,527.056824 
	C1298.089233,533.807495 1294.926147,541.280457 1289.996826,547.309509 
	C1276.885010,563.347107 1258.755005,571.234985 1239.085327,575.765320 
	C1214.564087,581.413086 1189.702881,581.718323 1164.673218,580.262390 
	C1125.935547,578.009094 1087.909058,570.609070 1049.609497,565.175110 
	C1013.086304,559.993286 976.347229,558.443176 939.565674,560.238098 
	C885.834045,562.860107 832.868225,571.440918 780.545410,583.677429 
	C728.789673,595.781250 677.344788,609.227356 625.528870,621.056641 
	C583.133484,630.735352 540.520020,639.593811 497.752808,647.453369 
	C475.597748,651.525024 452.944275,653.253662 430.432678,654.905579 
	C410.715637,656.352356 390.860779,657.081970 371.104462,656.596313 
	C327.353699,655.520752 284.285095,649.922791 243.417404,632.944824 
	C237.433960,630.459106 231.587952,627.642578 225.306351,624.985046 
	C218.762451,621.077942 212.592072,617.162415 206.418472,613.252075 
	C163.564087,586.108215 141.321869,546.746826 138.362808,496.537811 
	C137.196182,476.742889 143.927536,458.504181 153.698624,441.508484 
	C173.810928,406.525391 204.082733,383.616455 241.156342,369.154999 
	C249.950806,365.724487 259.193573,363.443268 268.638000,360.543457 
	C265.639984,363.979095 262.138245,367.417786 258.845520,371.046143 
	C247.552963,383.489838 235.565674,395.400543 225.251846,408.613953 
	C205.833237,433.491852 206.467377,462.607727 225.867554,485.041046 
	C233.822510,494.239655 243.776199,500.910950 254.553436,506.365936 
	C279.589569,519.038086 306.470459,525.874573 333.841827,530.976562 
	C369.694183,537.659363 405.930695,539.162598 442.279999,537.774780 
	C477.902557,536.414673 513.296875,532.434143 548.437134,526.497681 
	C601.081116,517.604248 653.613159,508.038452 706.299683,499.411163 
	C742.119690,493.545715 778.244446,490.225433 814.551270,488.760651 
	C849.703796,487.342407 884.811401,487.757568 919.878845,490.215302 
	C972.603821,493.910614 1024.690308,501.931610 1076.059448,514.443909 
	C1108.846680,522.430176 1141.453247,531.249756 1174.442627,538.279358 
	C1193.401123,542.319092 1212.912476,544.059387 1232.264893,545.878357 
	C1254.118164,547.932312 1274.490967,542.214050 1293.539429,531.545532 
	C1296.152710,530.081909 1298.753784,528.596313 1301.708984,527.056824 
M174.927094,548.622192 
	C174.814316,548.577087 174.701523,548.531982 174.588745,548.486938 
	C174.707748,548.673096 174.826752,548.859253 175.023087,549.751587 
	C178.842621,555.156128 182.234451,560.932556 186.554977,565.901489 
	C206.416214,588.743530 231.520447,603.881653 260.135986,612.652771 
	C278.609924,618.315369 297.623596,622.582397 316.668854,625.909363 
	C334.399536,629.006714 352.455780,631.119629 370.433777,631.721436 
	C399.315948,632.688232 428.263214,632.783875 457.070679,629.119568 
	C470.865967,627.364929 484.806549,626.701538 498.569122,624.751953 
	C518.883545,621.874207 539.112854,618.378540 559.348999,614.971375 
	C570.561707,613.083435 581.714661,610.840027 592.894531,608.756836 
	C585.680725,608.472534 578.634521,609.369324 571.562866,609.963684 
	C558.020325,611.101685 544.472046,612.204163 530.910339,613.074341 
	C509.067413,614.475769 487.225464,616.303345 465.357330,616.788025 
	C443.088593,617.281555 420.772827,616.786743 398.507477,615.940552 
	C380.969574,615.273987 363.461273,613.592590 345.968109,612.043152 
	C323.322693,610.037354 301.039459,605.943481 279.057983,600.063477 
	C245.428940,591.067688 214.766342,575.956604 186.369736,555.994629 
	C182.738235,553.441895 178.831177,551.281189 174.927094,548.622192 
M1045.848267,526.760132 
	C1048.524292,526.760132 1051.200195,526.760132 1053.876221,526.760132 
	C1008.041565,515.588135 961.655640,508.980347 914.633301,505.566162 
	C882.768005,503.252472 789.510071,504.733154 774.012512,509.935577 
	C775.728760,509.935577 777.056213,509.907318 778.382141,509.939819 
	C805.301575,510.599823 832.227539,511.070007 859.137817,511.995667 
	C880.033997,512.714355 900.914490,513.932129 921.794067,515.071350 
	C931.061340,515.577026 940.320129,516.317810 949.563721,517.160767 
	C966.219849,518.679565 982.862976,520.341553 999.508911,521.970154 
	C1014.672180,523.453613 1029.832031,524.972229 1045.848267,526.760132 
M597.734009,607.936646 
	C598.165649,607.822266 598.597290,607.707886 600.123840,607.303467 
	C598.463684,607.170898 597.999512,607.067688 597.561646,607.135132 
	C597.411621,607.158203 597.327332,607.608459 597.734009,607.936646 
M1056.821899,527.257751 
	C1056.877686,527.415588 1056.933472,527.573364 1056.989258,527.731201 
	C1057.043091,527.572632 1057.096802,527.414001 1056.821899,527.257751 
z"/>
<path fill="#132B5C" opacity="1.000000" stroke="none" 
	d="
M1245.729492,670.370728 
	C1220.018677,671.684814 1194.695190,671.943604 1169.618164,668.055420 
	C1133.850708,662.509705 1098.221191,656.080688 1062.476318,650.382751 
	C1036.568237,646.252747 1010.639465,642.086121 984.588562,639.069763 
	C962.156494,636.472473 939.563904,634.842346 916.996216,633.946533 
	C892.387024,632.969666 867.651733,632.033752 843.102783,633.414917 
	C807.135010,635.438599 771.238647,639.112183 735.401489,642.925293 
	C715.938293,644.996155 696.661377,648.815491 677.296875,651.823120 
	C676.165405,651.998779 675.001770,651.967407 673.619995,651.306763 
	C675.029297,650.751526 676.419128,650.139709 677.850586,649.649231 
	C725.523987,633.312317 773.492554,617.847900 823.143127,608.734863 
	C847.114502,604.335083 871.425232,601.487671 895.698059,599.128052 
	C912.875854,597.458313 930.284729,596.800415 947.524902,597.444519 
	C976.238953,598.517456 1004.945190,600.489685 1033.572266,603.017212 
	C1066.003906,605.880798 1098.319702,610.034241 1130.731812,613.149353 
	C1168.493042,616.778564 1206.161621,616.318481 1243.379883,607.964600 
	C1267.310547,602.593079 1289.450439,593.440491 1306.468262,574.890747 
	C1320.719482,559.356506 1328.180786,540.944397 1329.228516,519.803955 
	C1330.743774,489.232971 1320.909424,461.962860 1305.297729,436.089294 
	C1304.960571,435.998657 1305.002075,435.999756 1305.034668,435.660950 
	C1304.685181,434.722992 1304.303101,434.123810 1303.921143,433.524658 
	C1302.889648,431.543823 1301.858276,429.563019 1300.936279,427.243713 
	C1301.738892,427.013062 1302.585571,426.900146 1303.103516,427.260193 
	C1337.347290,451.060364 1362.040649,482.408600 1372.692261,522.803589 
	C1384.779907,568.644287 1368.127197,634.653320 1298.650757,659.021790 
	C1281.597656,665.003113 1264.084106,668.560120 1245.729492,670.370728 
M1305.338501,640.884277 
	C1321.934082,632.716370 1336.055298,621.630188 1345.818970,605.682312 
	C1353.798584,592.648865 1359.495850,578.866272 1357.748413,561.967590 
	C1357.001465,563.774475 1356.584839,564.614929 1356.299316,565.497742 
	C1349.979370,585.032593 1337.448853,600.331604 1322.047241,613.102966 
	C1293.866455,636.471252 1259.795898,645.797546 1224.618408,651.971252 
	C1213.755859,653.877563 1202.845093,655.508545 1191.956421,657.265625 
	C1202.487427,657.964050 1212.967285,658.322937 1223.411255,657.863647 
	C1233.990601,657.398315 1244.545654,656.236450 1255.091187,655.178345 
	C1272.423828,653.439331 1288.975952,648.836121 1305.338501,640.884277 
z"/>
<path fill="#355D95" opacity="1.000000" stroke="none" 
	d="
M802.263550,957.942261 
	C785.064697,952.853455 775.519409,939.524536 777.158997,923.382019 
	C778.785828,907.365540 791.033813,895.864929 808.181213,894.252930 
	C824.483154,892.720520 838.681274,901.871094 843.305237,916.890198 
	C850.398254,939.928894 831.196411,961.789246 806.612610,958.654480 
	C805.294250,958.486328 803.986633,958.233704 802.263550,957.942261 
M789.005859,923.865906 
	C788.995361,925.358704 788.888611,926.857971 788.989685,928.343201 
	C789.737915,939.338196 797.639221,947.374023 808.797302,948.540344 
	C819.365356,949.645020 829.125000,943.116577 832.079651,932.966125 
	C835.618164,920.809998 828.636658,908.031982 816.871887,905.131897 
	C803.534180,901.843994 792.175537,909.142639 789.005859,923.865906 
z"/>
<path fill="#355D95" opacity="1.000000" stroke="none" 
	d="
M689.000366,926.170898 
	C691.202515,908.640625 702.399658,897.194946 718.150635,895.924561 
	C736.198669,894.468872 750.770813,903.023438 755.112793,918.124207 
	C758.819885,931.017151 756.340759,942.849182 746.085938,951.816711 
	C734.863770,961.630005 721.621948,962.744507 708.199402,957.094666 
	C695.007385,951.541870 688.949219,940.848694 689.000366,926.170898 
M724.279114,905.982361 
	C714.532532,905.579407 707.104614,909.364380 702.847839,918.326355 
	C698.948975,926.535034 700.565918,936.760376 706.431030,943.036316 
	C713.012390,950.078796 724.276550,952.070801 733.070190,947.747253 
	C741.195068,943.752441 746.030334,934.260498 744.756165,924.806763 
	C743.370178,914.523621 736.360229,907.799805 724.279114,905.982361 
z"/>
<path fill="#1A3261" opacity="1.000000" stroke="none" 
	d="
M926.632446,109.777603 
	C923.762817,130.123550 920.958618,150.037033 918.164612,169.878006 
	C909.215393,170.298233 909.174438,170.263641 905.893372,162.827728 
	C897.997009,144.932617 890.090454,127.041962 881.989197,108.699074 
	C879.485840,127.313835 877.023376,145.624435 874.513855,164.285324 
	C871.412842,163.933075 868.818726,163.638382 865.661255,163.279709 
	C868.900574,140.015228 872.083435,117.156609 875.262878,94.322174 
	C883.545959,93.291512 885.067383,94.048851 888.245911,101.131920 
	C896.185303,118.824394 904.076843,136.538376 911.811523,153.849869 
	C914.100830,136.427551 916.468628,118.407379 918.917358,99.771454 
	C921.894592,100.103394 924.612244,100.406395 927.699768,100.750626 
	C927.339905,103.837082 927.018860,106.591103 926.632446,109.777603 
z"/>
<path fill="#355D95" opacity="1.000000" stroke="none" 
	d="
M615.694214,922.566528 
	C617.158264,910.572876 618.556396,899.023682 620.041443,886.755859 
	C632.738892,888.828247 645.734497,888.024414 657.621887,893.377930 
	C666.454285,897.355530 670.841309,905.898376 669.512695,914.900269 
	C667.910767,925.753479 661.809448,932.444336 651.494690,933.919067 
	C647.436462,934.499268 643.219788,934.225342 639.093445,934.003113 
	C634.957092,933.780396 630.843506,933.137146 626.257996,932.626770 
	C625.464783,938.504944 624.697205,944.192383 623.866028,950.351501 
	C619.977539,949.891907 616.436829,949.473450 612.405151,948.997009 
	C613.512207,940.071167 614.570251,931.541016 615.694214,922.566528 
M657.041199,917.190613 
	C659.293213,908.631653 656.731628,902.912903 648.862854,900.819214 
	C643.008728,899.261536 636.875122,898.754517 630.431396,897.709045 
	C629.406189,906.390198 628.463989,914.368530 627.475403,922.739624 
	C633.378906,923.414978 638.613342,924.226196 643.877991,924.557617 
	C649.364807,924.902954 654.071472,923.216492 657.041199,917.190613 
z"/>
<path fill="#193160" opacity="1.000000" stroke="none" 
	d="
M691.710571,137.553375 
	C696.242188,122.025444 700.879028,106.942657 704.940430,91.706482 
	C706.447083,86.054474 710.578491,88.092140 713.908020,87.287331 
	C717.356201,86.453850 718.086182,88.662056 719.041626,91.135132 
	C727.351196,112.642448 735.734497,134.121231 744.381653,156.342819 
	C740.958496,156.614426 737.938599,156.854019 734.527161,157.124680 
	C732.074951,150.872406 729.549316,144.787689 727.325745,138.594528 
	C726.393555,135.998077 725.284546,135.117950 722.305359,135.293823 
	C715.529907,135.693787 708.714600,135.419922 701.770691,135.419922 
	C699.339600,143.785324 697.179810,151.217010 694.981995,158.779465 
	C691.922363,158.779465 689.129883,158.779465 685.526672,158.779465 
	C687.583374,151.706772 689.585388,144.822189 691.710571,137.553375 
M719.793335,117.736061 
	C717.304077,111.183449 714.814880,104.630836 712.037842,97.320480 
	C708.999878,108.157570 706.168945,118.255966 703.177917,128.925766 
	C710.131714,128.559799 716.604187,128.219147 723.604980,127.850700 
	C722.254089,124.306328 721.144226,121.394249 719.793335,117.736061 
z"/>
<path fill="#193060" opacity="1.000000" stroke="none" 
	d="
M814.820190,141.743561 
	C813.410278,145.184814 812.139404,148.249863 810.881042,151.320007 
	C807.806580,158.820404 807.808960,158.821381 798.559387,156.845978 
	C808.119324,134.187012 817.631836,111.640594 827.098938,89.201736 
	C838.238037,88.628136 838.250000,88.625015 840.835022,98.516411 
	C846.249268,119.233406 851.649658,139.954041 857.233948,161.356277 
	C853.810425,161.194016 850.797852,161.051224 847.403015,160.890335 
	C845.680908,154.437347 843.844299,148.091568 842.344177,141.667236 
	C841.752991,139.135269 840.719604,138.054520 838.064758,137.966110 
	C832.581787,137.783463 827.077759,137.536133 821.642883,136.841934 
	C817.762878,136.346359 815.637512,137.563232 814.820190,141.743561 
M834.680603,130.493912 
	C836.306335,130.571213 837.932007,130.648514 839.901611,130.742157 
	C837.209534,120.061989 834.602905,109.720596 831.877441,98.907974 
	C827.683899,109.254547 823.733765,119.000458 819.535889,129.357819 
	C824.678345,129.720703 829.247681,130.043152 834.680603,130.493912 
z"/>
<path fill="#1C3362" opacity="1.000000" stroke="none" 
	d="
M639.169067,149.889847 
	C637.358398,131.235565 635.579468,113.037987 633.749878,94.321342 
	C646.406555,93.052345 658.755920,91.814163 671.795959,90.506729 
	C671.964783,93.178703 672.114868,95.554031 672.291260,98.346046 
	C662.754944,99.338974 653.556641,100.296715 643.861267,101.306206 
	C644.597839,108.608536 645.307251,115.641869 646.042969,122.935570 
	C655.113586,122.051918 663.819946,121.203743 672.919556,120.317261 
	C673.286194,122.755043 673.622803,124.993492 674.060120,127.901169 
	C664.983582,128.880188 656.151978,129.832779 646.830017,130.838272 
	C647.642334,139.027481 648.423035,146.898087 649.268799,155.424683 
	C659.338013,154.507675 669.176514,153.611694 679.548157,152.667160 
	C679.761414,155.341827 679.941284,157.597610 680.168152,160.442963 
	C667.081421,161.753128 654.262634,163.036453 640.880615,164.376175 
	C640.290527,159.447510 639.745728,154.897034 639.169067,149.889847 
z"/>
<path fill="#1A3160" opacity="1.000000" stroke="none" 
	d="
M571.926636,123.235725 
	C574.060486,140.646317 566.518311,148.351257 543.247864,152.600784 
	C545.044434,161.485168 546.841064,170.369827 548.717285,179.647964 
	C545.648804,180.249146 542.801758,180.806961 539.579834,181.438202 
	C534.820618,158.575531 530.156921,136.171768 525.224304,112.476173 
	C534.216858,110.747726 542.713501,108.301064 551.343994,107.661896 
	C562.107117,106.864777 568.379822,112.169487 571.926636,123.235725 
M562.288391,134.327164 
	C564.184937,128.096954 563.543091,122.157990 558.238831,118.085030 
	C551.034485,112.553093 543.516479,115.801147 535.992493,118.222786 
	C537.895325,127.284538 539.717529,135.962234 541.594727,144.901901 
	C549.832153,143.803452 557.602295,142.983780 562.288391,134.327164 
z"/>
<path fill="#1A3160" opacity="1.000000" stroke="none" 
	d="
M787.050049,124.978851 
	C797.052551,137.700958 792.043396,153.294174 776.797424,157.360397 
	C767.431946,159.858276 758.361511,158.558731 749.270630,153.888199 
	C750.043762,151.318039 750.781555,148.865173 751.474182,146.562393 
	C755.995789,147.902573 760.161072,149.494568 764.473267,150.288849 
	C767.321167,150.813446 770.443665,150.537277 773.330688,150.006989 
	C778.380920,149.079361 781.621277,145.951233 782.501343,140.748383 
	C783.381958,135.542145 781.302002,131.460999 776.915466,128.924454 
	C772.475952,126.357231 767.636841,124.492020 763.073120,122.125778 
	C757.744812,119.363190 753.362183,115.618172 751.957397,109.417137 
	C749.856873,100.145157 754.248474,91.656952 763.319092,88.058563 
	C772.319763,84.487885 781.182861,85.553101 790.185059,89.639458 
	C789.299255,92.194389 788.503723,94.488914 787.800659,96.516708 
	C783.030212,95.595184 778.569336,94.266983 774.040466,93.968262 
	C767.297241,93.523468 762.331543,96.942680 761.174927,101.955070 
	C759.974243,107.158302 762.395386,111.389633 768.496887,114.732033 
	C774.589905,118.069855 780.686646,121.400833 787.050049,124.978851 
z"/>
<path fill="#FF9730" opacity="1.000000" stroke="none" 
	d="
M180.678101,312.392883 
	C181.646942,315.776611 183.752747,316.775635 186.745651,317.047974 
	C191.024277,317.437286 195.264420,318.249451 200.848877,319.078064 
	C196.906204,322.748138 193.882767,325.811432 190.588303,328.548523 
	C188.062241,330.647186 187.560165,332.982819 188.231812,336.044769 
	C189.079926,339.911163 189.591385,343.851379 190.466049,349.057129 
	C185.723236,346.675140 181.861603,344.992676 178.275696,342.848999 
	C175.663101,341.287201 173.554886,341.270905 170.950180,342.833344 
	C167.271378,345.040100 163.349747,346.842102 158.756805,349.218109 
	C159.575195,344.274017 160.139069,340.048584 161.008301,335.886963 
	C161.651443,332.807739 160.985672,330.549103 158.559860,328.389679 
	C155.476868,325.645264 152.790985,322.454803 149.459503,318.958832 
	C153.987000,318.273743 158.384369,317.937164 162.579727,316.833069 
	C164.639328,316.291046 166.903183,314.702209 168.058640,312.926178 
	C170.482574,309.200317 172.234436,305.037262 174.651016,300.289948 
	C176.829391,304.665009 178.667999,308.357666 180.678101,312.392883 
z"/>
<path fill="#355D95" opacity="1.000000" stroke="none" 
	d="
M882.118042,924.713257 
	C882.952759,930.377502 883.738525,935.602417 884.598999,941.324341 
	C895.464050,939.822144 905.948547,938.372559 916.968811,936.848877 
	C917.424805,940.152100 917.841370,943.169800 918.313416,946.589539 
	C903.569824,948.685547 889.296936,950.714661 874.356201,952.838684 
	C871.431274,932.177795 868.533691,911.709656 865.573669,890.800964 
	C869.420471,890.170227 872.807190,889.614868 877.045593,888.919861 
	C878.730774,900.779968 880.399841,912.526917 882.118042,924.713257 
z"/>
<path fill="#FF962F" opacity="1.000000" stroke="none" 
	d="
M1351.139160,334.899353 
	C1351.904053,339.517578 1352.613647,343.722443 1353.527710,349.139374 
	C1349.078979,346.849945 1345.536743,345.405762 1342.422729,343.321869 
	C1339.047485,341.063232 1336.183594,341.371155 1332.902588,343.362640 
	C1329.558716,345.392151 1325.972900,347.023102 1321.834717,349.170074 
	C1322.654907,344.282715 1323.175781,340.173218 1324.072754,336.147583 
	C1324.802612,332.872253 1324.043457,330.492279 1321.514038,328.210876 
	C1318.579590,325.564178 1316.058228,322.459442 1312.817505,318.972473 
	C1317.046021,318.306854 1321.124023,317.396576 1325.246216,317.101562 
	C1328.502441,316.868469 1330.364990,315.531311 1331.648926,312.594055 
	C1333.352661,308.696045 1335.426758,304.959900 1337.748291,300.346558 
	C1340.090820,305.079254 1341.770996,309.247375 1344.158203,312.961121 
	C1345.304077,314.743744 1347.620605,316.305634 1349.698364,316.845123 
	C1353.843262,317.921448 1358.189453,318.222961 1363.314087,320.110382 
	C1360.006470,323.055511 1356.516235,325.827271 1353.477539,329.027802 
	C1352.190796,330.383118 1351.853027,332.639313 1351.139160,334.899353 
z"/>
<path fill="#1A3161" opacity="1.000000" stroke="none" 
	d="
M950.242676,112.722549 
	C945.785828,111.747482 941.740601,110.867661 937.322998,109.906845 
	C937.810913,107.326019 938.256470,104.969208 938.797485,102.107216 
	C955.968750,105.608627 972.804810,109.041679 989.933655,112.534439 
	C989.412292,115.146210 988.966553,117.379097 988.386597,120.284378 
	C981.415405,118.938049 974.657837,117.632980 967.403259,116.231926 
	C963.249329,136.461243 959.121582,156.562820 954.884827,177.195602 
	C951.866394,176.608765 949.028198,176.056946 945.622009,175.394699 
	C949.789795,154.883865 953.882080,134.744537 958.038208,114.290916 
	C955.485840,113.781715 953.070068,113.299759 950.242676,112.722549 
z"/>
<path fill="#1B3261" opacity="1.000000" stroke="none" 
	d="
M606.108887,168.979828 
	C601.581909,169.640121 597.491699,170.265961 592.692749,171.000244 
	C589.163635,147.788864 585.662659,124.762825 582.120422,101.465080 
	C585.233337,100.938309 587.969238,100.475327 591.334839,99.905785 
	C594.497375,120.539810 597.624390,140.941589 600.802673,161.678360 
	C610.796692,160.205948 620.260498,158.811646 630.289856,157.334030 
	C630.676880,159.913193 631.028076,162.253159 631.447327,165.046982 
	C622.885315,166.387375 614.715515,167.666367 606.108887,168.979828 
z"/>
<path fill="#132B5C" opacity="1.000000" stroke="none" 
	d="
M1300.145874,425.783264 
	C1299.797974,425.883575 1299.573486,425.671234 1299.361938,425.175842 
	C1299.622925,425.138306 1299.921021,425.330902 1300.145874,425.783264 
z"/>
<path fill="#132B5C" opacity="1.000000" stroke="none" 
	d="
M1301.223389,426.607788 
	C1300.755737,426.822998 1300.420532,426.685577 1300.039917,426.232910 
	C1300.448242,426.030151 1300.902100,426.142670 1301.223389,426.607788 
z"/>
<path fill="#132B5B" opacity="1.000000" stroke="none" 
	d="
M1119.850830,363.192749 
	C1097.053833,358.278717 1078.304321,347.345490 1063.358643,329.913544 
	C1062.012573,328.343536 1060.122681,327.064392 1058.241089,326.156097 
	C1040.222534,317.457886 1021.001892,312.653290 1001.320557,310.112701 
	C976.572632,306.918121 951.701111,304.686554 926.892151,301.955994 
	C919.617310,301.155304 912.354187,300.195831 905.125183,299.057770 
	C902.026733,298.569916 900.424988,299.328156 899.070984,302.347168 
	C887.314087,328.561981 873.007690,353.286774 855.458801,376.094391 
	C854.538269,377.290833 853.827454,379.129150 853.959595,380.583160 
	C856.013000,403.183380 853.890625,425.454163 849.021973,447.533783 
	C848.960266,447.813568 849.137207,448.145966 849.314270,448.977936 
	C854.626526,448.041321 860.010132,447.313934 865.248108,446.003784 
	C866.470581,445.698029 867.531372,443.539734 868.104126,442.021606 
	C877.772461,416.392120 895.163086,398.946228 922.276489,393.080170 
	C955.345764,385.925568 988.456116,402.976440 1002.811340,433.586426 
	C1009.670288,448.211853 1012.979004,463.786499 1014.864807,479.720520 
	C1014.937988,480.338623 1014.807373,480.980804 1014.756653,481.876556 
	C1002.695557,480.168640 990.929443,478.089142 979.073853,476.907593 
	C952.253845,474.234589 925.432190,471.225952 898.534668,469.755676 
	C841.375671,466.631195 784.292480,468.611420 727.636597,476.966339 
	C684.205688,483.371033 640.951660,491.017273 597.692322,498.533661 
	C548.986084,506.996490 500.275269,515.267273 450.808868,517.917175 
	C419.160889,519.612610 387.601105,518.898376 355.506500,514.642273 
	C356.755096,513.495300 357.602661,512.591125 358.571869,511.844757 
	C380.863770,494.678345 404.983429,481.499908 433.108643,476.459839 
	C449.705780,473.485596 465.941772,475.506348 482.202759,478.427277 
	C553.883789,491.303192 619.785400,477.988922 679.306213,435.256653 
	C695.255798,423.805817 711.189270,412.167328 730.037048,405.755768 
	C738.191711,402.981750 746.724731,401.335663 754.952881,398.753418 
	C757.732788,397.880981 760.773743,396.241272 762.547424,394.030975 
	C771.545166,382.818695 777.058533,369.657074 780.798401,356.023621 
	C789.913391,322.795319 809.069336,297.177032 836.558655,276.806549 
	C850.017212,266.833313 862.234375,255.137848 874.665344,243.838882 
	C885.409119,234.073441 897.713501,234.335480 910.330872,237.688339 
	C955.239929,249.622055 998.891418,265.228943 1041.591431,283.521790 
	C1053.342896,288.556122 1065.035767,293.728577 1076.825928,298.669708 
	C1078.394897,299.327240 1080.388916,299.167542 1082.172485,299.086823 
	C1114.382446,297.629272 1140.771240,308.856110 1160.403076,334.873688 
	C1160.603638,335.139435 1160.887573,335.393433 1160.962402,335.695099 
	C1161.717529,338.739441 1163.758545,342.367676 1162.758545,344.665680 
	C1161.923462,346.584717 1157.475464,347.930847 1154.697021,347.818268 
	C1146.243408,347.475891 1137.808716,346.425781 1129.394897,345.416687 
	C1122.914062,344.639465 1116.475952,343.508209 1110.018799,342.534393 
	C1109.833984,343.055176 1109.649048,343.575989 1109.464233,344.096802 
	C1113.498047,346.563171 1117.518188,349.052612 1121.573364,351.483429 
	C1122.996826,352.336700 1125.032104,352.684784 1125.865723,353.897522 
	C1127.512085,356.292725 1128.514893,359.130249 1129.783813,361.784851 
	C1127.421021,362.475830 1125.079346,363.259430 1122.682861,363.801758 
	C1121.955322,363.966431 1121.076904,363.464722 1119.850830,363.192749 
z"/>
<path fill="#FFFCF9" opacity="1.000000" stroke="none" 
	d="
M1238.912231,532.012695 
	C1224.626343,532.686584 1211.418091,530.267578 1199.244263,524.987610 
	C1205.540161,524.987610 1212.212769,525.203674 1218.866699,524.943176 
	C1233.171509,524.383057 1246.897949,521.466431 1259.342407,513.970398 
	C1275.656006,504.143829 1284.594116,489.550079 1285.918579,470.721497 
	C1286.672607,460.000610 1286.054932,449.183197 1286.054932,438.649323 
	C1286.409546,439.233246 1287.145752,440.308685 1287.738525,441.458099 
	C1288.423462,442.785950 1288.990601,444.175262 1289.594238,445.544281 
	C1295.741333,459.483795 1299.375000,473.932312 1296.487793,489.181366 
	C1292.350464,511.033234 1273.679565,527.505249 1249.813721,530.942871 
	C1246.362305,531.440002 1242.871338,531.662354 1238.912231,532.012695 
z"/>
<path fill="#FFFCFA" opacity="1.000000" stroke="none" 
	d="
M261.979248,408.979980 
	C260.438019,411.290009 258.759460,413.521118 257.378174,415.923096 
	C249.402527,429.792206 250.489914,443.685883 257.848755,457.310638 
	C266.632599,473.573730 281.109741,484.031982 296.199615,493.681122 
	C303.749847,498.509064 311.644501,502.798309 319.470978,507.382538 
	C301.091217,505.581665 264.429382,489.383331 251.444336,476.846527 
	C247.183289,472.732574 243.281265,467.980865 240.261536,462.898987 
	C232.465454,449.779022 234.144638,435.064270 245.084671,422.826355 
	C249.782516,417.571136 255.857910,413.547394 261.652954,408.981445 
	C261.998505,408.998749 261.979248,408.979980 261.979248,408.979980 
z"/>
<path fill="#608EB4" opacity="1.000000" stroke="none" 
	d="
M1303.889648,433.906128 
	C1304.303101,434.123810 1304.685181,434.722992 1305.026611,435.680359 
	C1304.609985,435.454926 1304.234009,434.871246 1303.889648,433.906128 
z"/>
<path fill="#FFFCFA" opacity="1.000000" stroke="none" 
	d="
M262.007294,409.008514 
	C262.233032,408.812164 262.449982,408.606079 262.666962,408.399994 
	C262.613342,408.602081 262.559723,408.804199 262.242676,408.993134 
	C261.979248,408.979980 261.998505,408.998749 262.007294,409.008514 
z"/>
<path fill="#FFFCFA" opacity="1.000000" stroke="none" 
	d="
M264.503387,407.438843 
	C264.571106,407.520874 264.310455,407.528320 264.310455,407.528320 
	C264.310455,407.528320 264.435669,407.356812 264.503387,407.438843 
z"/>
<path fill="#132B5B" opacity="1.000000" stroke="none" 
	d="
M1302.655273,526.463013 
	C1302.673096,526.603577 1302.492310,526.760010 1302.129395,526.969055 
	C1302.106323,526.834167 1302.276123,526.653259 1302.655273,526.463013 
z"/>
<path fill="#9BC4E5" opacity="1.000000" stroke="none" 
	d="
M1074.106567,744.098999 
	C1102.784912,735.160706 1131.069946,726.322388 1159.354980,717.484070 
	C986.035156,802.218018 803.997742,829.717896 613.336914,800.044067 
	C644.178833,800.044067 675.038879,800.706360 705.857544,799.858826 
	C737.038086,799.001343 768.245544,797.431702 799.315796,794.731262 
	C830.163147,792.050171 860.969299,788.327942 891.581787,783.670776 
	C922.352539,778.989624 953.029236,773.358887 983.439697,766.733337 
	C1013.729614,760.134033 1043.637695,751.782227 1074.106567,744.098999 
z"/>
<path fill="#9BC4E5" opacity="1.000000" stroke="none" 
	d="
M316.460327,680.652100 
	C339.917999,682.223389 362.921631,684.079285 385.962555,684.981873 
	C407.563660,685.827942 429.237366,686.539368 450.818970,685.721680 
	C476.810608,684.736816 502.754456,682.263916 528.690369,680.093079 
	C561.427490,677.352905 593.742920,671.735596 625.887390,665.078613 
	C626.515869,664.948547 627.194824,665.062256 627.988098,665.062256 
	C619.342224,672.286926 547.490112,695.712646 519.534729,701.081909 
	C481.478851,708.391235 443.246094,711.324768 404.661591,706.895630 
	C366.454773,702.509888 329.593964,692.706726 293.974213,677.952637 
	C301.323669,678.808594 308.673096,679.664490 316.460327,680.652100 
z"/>
<path fill="#132B5C" opacity="1.000000" stroke="none" 
	d="
M670.998047,652.234253 
	C671.200745,652.400330 671.222717,652.576111 671.183655,652.737183 
	C671.175964,652.768860 670.933350,652.743713 670.799072,652.744873 
	C670.798035,652.576172 670.796997,652.407532 670.998047,652.234253 
z"/>
<path fill="#305992" opacity="1.000000" stroke="none" 
	d="
M175.051758,548.938904 
	C178.831177,551.281189 182.738235,553.441895 186.369736,555.994629 
	C214.766342,575.956604 245.428940,591.067688 279.057983,600.063477 
	C301.039459,605.943481 323.322693,610.037354 345.968109,612.043152 
	C363.461273,613.592590 380.969574,615.273987 398.507477,615.940552 
	C420.772827,616.786743 443.088593,617.281555 465.357330,616.788025 
	C487.225464,616.303345 509.067413,614.475769 530.910339,613.074341 
	C544.472046,612.204163 558.020325,611.101685 571.562866,609.963684 
	C578.634521,609.369324 585.680725,608.472534 592.894531,608.756836 
	C581.714661,610.840027 570.561707,613.083435 559.348999,614.971375 
	C539.112854,618.378540 518.883545,621.874207 498.569122,624.751953 
	C484.806549,626.701538 470.865967,627.364929 457.070679,629.119568 
	C428.263214,632.783875 399.315948,632.688232 370.433777,631.721436 
	C352.455780,631.119629 334.399536,629.006714 316.668854,625.909363 
	C297.623596,622.582397 278.609924,618.315369 260.135986,612.652771 
	C231.520447,603.881653 206.416214,588.743530 186.554977,565.901489 
	C182.234451,560.932556 178.842621,555.156128 175.012222,549.373169 
	C175.001358,548.994812 175.051758,548.938904 175.051758,548.938904 
z"/>
<path fill="#2F5790" opacity="1.000000" stroke="none" 
	d="
M1045.420776,526.617737 
	C1029.832031,524.972229 1014.672180,523.453613 999.508911,521.970154 
	C982.862976,520.341553 966.219849,518.679565 949.563721,517.160767 
	C940.320129,516.317810 931.061340,515.577026 921.794067,515.071350 
	C900.914490,513.932129 880.033997,512.714355 859.137817,511.995667 
	C832.227539,511.070007 805.301575,510.599823 778.382141,509.939819 
	C777.056213,509.907318 775.728760,509.935577 774.012512,509.935577 
	C789.510071,504.733154 882.768005,503.252472 914.633301,505.566162 
	C961.655640,508.980347 1008.041565,515.588135 1053.876221,526.760132 
	C1051.200195,526.760132 1048.524292,526.760132 1045.420776,526.617737 
z"/>
<path fill="#305992" opacity="1.000000" stroke="none" 
	d="
M597.473511,607.900024 
	C597.327332,607.608459 597.411621,607.158203 597.561646,607.135132 
	C597.999512,607.067688 598.463684,607.170898 600.123840,607.303467 
	C598.597290,607.707886 598.165649,607.822266 597.473511,607.900024 
z"/>
<path fill="#2F5790" opacity="1.000000" stroke="none" 
	d="
M1056.986206,527.256592 
	C1057.096802,527.414001 1057.043091,527.572632 1056.989258,527.731201 
	C1056.933472,527.573364 1056.877686,527.415588 1056.986206,527.256592 
z"/>
<path fill="#305992" opacity="1.000000" stroke="none" 
	d="
M174.973557,549.020142 
	C174.826752,548.859253 174.707748,548.673096 174.588745,548.486938 
	C174.701523,548.531982 174.814316,548.577087 174.989426,548.780518 
	C175.051758,548.938904 175.001358,548.994812 174.973557,549.020142 
z"/>
<path fill="#305991" opacity="1.000000" stroke="none" 
	d="
M1304.996094,641.035156 
	C1288.975952,648.836121 1272.423828,653.439331 1255.091187,655.178345 
	C1244.545654,656.236450 1233.990601,657.398315 1223.411255,657.863647 
	C1212.967285,658.322937 1202.487427,657.964050 1191.956421,657.265625 
	C1202.845093,655.508545 1213.755859,653.877563 1224.618408,651.971252 
	C1259.795898,645.797546 1293.866455,636.471252 1322.047241,613.102966 
	C1337.448853,600.331604 1349.979370,585.032593 1356.299316,565.497742 
	C1356.584839,564.614929 1357.001465,563.774475 1357.748413,561.967590 
	C1359.495850,578.866272 1353.798584,592.648865 1345.818970,605.682312 
	C1336.055298,621.630188 1321.934082,632.716370 1304.996094,641.035156 
z"/>
<path fill="#FCFDFE" opacity="1.000000" stroke="none" 
	d="
M789.037720,923.431274 
	C792.175537,909.142639 803.534180,901.843994 816.871887,905.131897 
	C828.636658,908.031982 835.618164,920.809998 832.079651,932.966125 
	C829.125000,943.116577 819.365356,949.645020 808.797302,948.540344 
	C797.639221,947.374023 789.737915,939.338196 788.989685,928.343201 
	C788.888611,926.857971 788.995361,925.358704 789.037720,923.431274 
z"/>
<path fill="#FDFDFE" opacity="1.000000" stroke="none" 
	d="
M724.718750,905.995789 
	C736.360229,907.799805 743.370178,914.523621 744.756165,924.806763 
	C746.030334,934.260498 741.195068,943.752441 733.070190,947.747253 
	C724.276550,952.070801 713.012390,950.078796 706.431030,943.036316 
	C700.565918,936.760376 698.948975,926.535034 702.847839,918.326355 
	C707.104614,909.364380 714.532532,905.579407 724.718750,905.995789 
z"/>
<path fill="#FAFBFC" opacity="1.000000" stroke="none" 
	d="
M656.926086,917.566895 
	C654.071472,923.216492 649.364807,924.902954 643.877991,924.557617 
	C638.613342,924.226196 633.378906,923.414978 627.475403,922.739624 
	C628.463989,914.368530 629.406189,906.390198 630.431396,897.709045 
	C636.875122,898.754517 643.008728,899.261536 648.862854,900.819214 
	C656.731628,902.912903 659.293213,908.631653 656.926086,917.566895 
z"/>
<path fill="#F6F7F8" opacity="1.000000" stroke="none" 
	d="
M719.913818,118.109116 
	C721.144226,121.394249 722.254089,124.306328 723.604980,127.850700 
	C716.604187,128.219147 710.131714,128.559799 703.177917,128.925766 
	C706.168945,118.255966 708.999878,108.157570 712.037842,97.320480 
	C714.814880,104.630836 717.304077,111.183449 719.913818,118.109116 
z"/>
<path fill="#F5F6F8" opacity="1.000000" stroke="none" 
	d="
M834.248840,130.429749 
	C829.247681,130.043152 824.678345,129.720703 819.535889,129.357819 
	C823.733765,119.000458 827.683899,109.254547 831.877441,98.907974 
	C834.602905,109.720596 837.209534,120.061989 839.901611,130.742157 
	C837.932007,130.648514 836.306335,130.571213 834.248840,130.429749 
z"/>
<path fill="#FBFCFC" opacity="1.000000" stroke="none" 
	d="
M562.154785,134.701935 
	C557.602295,142.983780 549.832153,143.803452 541.594727,144.901901 
	C539.717529,135.962234 537.895325,127.284538 535.992493,118.222786 
	C543.516479,115.801147 551.034485,112.553093 558.238831,118.085030 
	C563.543091,122.157990 564.184937,128.096954 562.154785,134.701935 
z"/>
</svg>